<svg width="192" height="151" viewBox="0 0 192 151" fill="none" xmlns="http://www.w3.org/2000/svg">
<path d="M51.9563 3C51.9563 1.34315 53.2994 0 54.9563 0H68.9563C70.6132 0 71.9563 1.34315 71.9563 3V66H69.9563C60.0152 66 51.9563 57.9411 51.9563 48V3Z" fill="#E24B1C"/>
<circle cx="95.9563" cy="45" r="11" fill="black"/>
<path d="M95.4524 3.85307C95.428 2.19639 96.7527 0.822952 98.4072 0.91124C106.11 1.32228 113.591 3.74901 120.097 7.9739C127.444 12.7454 133.216 19.596 136.684 27.6596C140.152 35.7231 141.16 44.6374 139.58 53.2752C138 61.9129 133.903 69.8862 127.807 76.1867C121.712 82.4871 113.891 86.8319 105.335 88.6715C96.7782 90.5111 87.8701 89.7629 79.7368 86.5215C71.6035 83.2801 64.6103 77.6912 59.6416 70.4614C55.24 64.0568 52.6023 56.6194 51.9675 48.9004C51.8317 47.2491 53.1654 45.8846 54.8221 45.8602L68.1629 45.6636C69.8196 45.6392 71.1639 46.9675 71.3858 48.6094C71.9097 52.4851 73.3349 56.1982 75.5635 59.441C78.36 63.5101 82.296 66.6558 86.8737 68.4801C91.4514 70.3045 96.4652 70.7256 101.281 69.6902C106.097 68.6548 110.499 66.2095 113.929 62.6633C117.36 59.1172 119.666 54.6296 120.555 49.768C121.445 44.9063 120.878 39.8891 118.926 35.3506C116.974 30.8122 113.725 26.9564 109.59 24.2708C106.297 22.1327 102.561 20.8128 98.6893 20.4002C97.0417 20.2246 95.6744 18.9202 95.65 17.2635L95.4524 3.85307Z" fill="#E24B1C"/>
<path d="M2.408 127.932C2.38933 127.727 2.38 127.503 2.38 127.26C2.38 127.017 2.38 126.737 2.38 126.42C2.38 125.617 2.39867 124.665 2.436 123.564C2.47333 122.444 2.52933 121.259 2.604 120.008C2.67867 118.739 2.75333 117.469 2.828 116.2C2.90267 114.912 2.97733 113.68 3.052 112.504C3.14533 111.328 3.22933 110.273 3.304 109.34C2.89333 109.471 2.52933 109.592 2.212 109.704L1.484 105C3.59333 104.403 5.55333 103.955 7.364 103.656C9.19333 103.357 10.8453 103.208 12.32 103.208C15.3253 103.208 17.6213 103.777 19.208 104.916C20.7947 106.055 21.588 107.707 21.588 109.872C21.588 111.104 21.3173 112.14 20.776 112.98C20.2347 113.801 19.4693 114.483 18.48 115.024C20.9067 116.256 22.12 118.263 22.12 121.044C22.12 122.276 21.8867 123.312 21.42 124.152C20.972 124.973 20.3933 125.636 19.684 126.14C18.9747 126.644 18.2187 127.017 17.416 127.26C16.632 127.521 15.8853 127.689 15.176 127.764C14.4853 127.857 13.944 127.904 13.552 127.904C12.5813 127.904 11.5453 127.811 10.444 127.624C9.34267 127.437 8.26933 127.157 7.224 126.784C7.224 127.157 7.224 127.512 7.224 127.848L2.408 127.932ZM12.432 107.884C11.76 107.884 11.0507 107.921 10.304 107.996C9.576 108.052 8.848 108.145 8.12 108.276C8.008 109.639 7.896 111.225 7.784 113.036C8.02667 113.055 8.26933 113.064 8.512 113.064C8.77333 113.064 9.03467 113.064 9.296 113.064C14.224 113.064 16.688 112.056 16.688 110.04C16.688 109.368 16.3053 108.845 15.54 108.472C14.7933 108.08 13.7573 107.884 12.432 107.884ZM9.94 117.488C9.548 117.488 9.14667 117.488 8.736 117.488C8.344 117.488 7.94267 117.497 7.532 117.516C7.49467 118.337 7.45733 119.159 7.42 119.98C7.40133 120.801 7.37333 121.613 7.336 122.416C8.38133 122.733 9.408 122.967 10.416 123.116C11.424 123.247 12.292 123.312 13.02 123.312C14.5693 123.312 15.68 123.125 16.352 122.752C17.024 122.36 17.36 121.725 17.36 120.848C17.36 119.765 16.716 118.935 15.428 118.356C14.1587 117.777 12.3293 117.488 9.94 117.488ZM30.8842 128.296C29.6896 128.296 28.7002 128.081 27.9162 127.652C27.1509 127.241 26.5349 126.672 26.0682 125.944C25.6202 125.216 25.2842 124.404 25.0602 123.508C24.8549 122.593 24.7149 121.651 24.6402 120.68C24.5842 119.691 24.5562 118.739 24.5562 117.824C24.5562 116.779 24.5842 115.715 24.6402 114.632C24.7149 113.549 24.7896 112.364 24.8642 111.076L29.9882 110.768C29.9322 111.16 29.8482 111.748 29.7362 112.532C29.6242 113.316 29.5216 114.212 29.4282 115.22C29.3349 116.228 29.2882 117.283 29.2882 118.384C29.2882 120.195 29.4469 121.539 29.7642 122.416C30.0816 123.275 30.5576 123.704 31.1922 123.704C32.4616 123.704 33.3949 122.78 33.9922 120.932C34.5896 119.084 34.8882 116.163 34.8882 112.168V110.88L37.2682 110.824L40.1522 110.768C39.8909 112.523 39.6949 114.137 39.5642 115.612C39.4336 117.087 39.3496 118.328 39.3122 119.336C39.2749 120.325 39.2562 120.988 39.2562 121.324C39.2562 122.183 39.3309 122.799 39.4802 123.172C39.6296 123.527 39.8909 123.704 40.2642 123.704C40.4509 123.704 40.6562 123.667 40.8802 123.592C41.1042 123.517 41.3656 123.387 41.6642 123.2L41.4682 128.016C40.7589 128.128 40.1429 128.184 39.6202 128.184C38.7242 128.184 37.9869 128.016 37.4082 127.68C36.8482 127.344 36.4002 126.896 36.0642 126.336C35.4856 126.952 34.7669 127.428 33.9082 127.764C33.0682 128.119 32.0602 128.296 30.8842 128.296ZM51.0289 128.212C50.0582 128.212 49.1062 128.044 48.1729 127.708C47.2582 127.372 46.4276 126.849 45.6809 126.14C44.9529 125.449 44.3742 124.581 43.9449 123.536C43.5156 122.472 43.3009 121.231 43.3009 119.812C43.3009 118.207 43.5436 116.825 44.0289 115.668C44.5329 114.492 45.1956 113.531 46.0169 112.784C46.8382 112.019 47.7529 111.449 48.7609 111.076C49.7689 110.703 50.7769 110.516 51.7849 110.516C52.3822 110.516 52.9516 110.563 53.4929 110.656C54.0342 110.731 54.5382 110.843 55.0049 110.992C55.0609 109.629 55.1262 108.257 55.2009 106.876C55.2942 105.495 55.3969 104.132 55.5089 102.788L60.2129 103.096C60.0636 104.645 59.9329 106.316 59.8209 108.108C59.7089 109.881 59.6249 111.692 59.5689 113.54C59.5316 115.388 59.5129 117.189 59.5129 118.944C59.5129 120.587 59.5316 122.155 59.5689 123.648C59.6249 125.123 59.6902 126.467 59.7649 127.68L54.9209 128.044C54.9022 127.689 54.8929 127.344 54.8929 127.008C54.3516 127.363 53.7542 127.652 53.1009 127.876C52.4662 128.1 51.7756 128.212 51.0289 128.212ZM47.8089 119.56C47.8089 120.531 47.9956 121.296 48.3689 121.856C48.7422 122.397 49.1996 122.78 49.7409 123.004C50.2822 123.228 50.8049 123.34 51.3089 123.34C51.9062 123.34 52.5036 123.209 53.1009 122.948C53.6982 122.687 54.2582 122.229 54.7809 121.576C54.7809 121.352 54.7809 121.137 54.7809 120.932C54.7809 119.42 54.7996 117.871 54.8369 116.284C53.9596 115.519 53.0076 115.136 51.9809 115.136C51.5516 115.136 51.0942 115.201 50.6089 115.332C50.1236 115.463 49.6662 115.696 49.2369 116.032C48.8262 116.349 48.4809 116.797 48.2009 117.376C47.9396 117.936 47.8089 118.664 47.8089 119.56ZM68.9533 126.14C67.7773 126.14 66.7786 125.963 65.9573 125.608C65.1359 125.253 64.4546 124.796 63.9133 124.236C63.3906 123.657 62.9799 123.041 62.6813 122.388C62.3826 121.716 62.1773 121.072 62.0653 120.456C61.9533 119.821 61.8973 119.271 61.8973 118.804C61.8973 117.908 62.0186 116.984 62.2613 116.032C62.5226 115.08 62.9519 114.193 63.5493 113.372C64.1653 112.551 64.9959 111.888 66.0413 111.384C67.1053 110.88 68.4399 110.628 70.0453 110.628C70.5306 110.628 70.9786 110.665 71.3893 110.74C71.7999 110.815 72.1826 110.917 72.5373 111.048V110.124H77.3813C77.3626 111.244 77.3439 112.513 77.3253 113.932C77.3066 115.332 77.2973 116.919 77.2973 118.692C77.2973 119.607 77.2973 120.568 77.2973 121.576C77.3159 122.565 77.3253 123.648 77.3253 124.824C77.3253 126.429 77.1106 127.745 76.6813 128.772C76.2519 129.799 75.7013 130.592 75.0293 131.152C74.3573 131.712 73.6573 132.113 72.9293 132.356C72.2199 132.617 71.5573 132.767 70.9413 132.804C70.3439 132.86 69.8959 132.888 69.5973 132.888C68.8693 132.888 68.0666 132.804 67.1893 132.636C66.3119 132.487 65.4346 132.235 64.5573 131.88C63.6799 131.544 62.8773 131.105 62.1493 130.564L64.1933 126.308C64.6599 126.7 65.1266 127.055 65.5933 127.372C66.0599 127.708 66.6013 127.969 67.2173 128.156C67.8333 128.361 68.5986 128.464 69.5133 128.464C70.4466 128.464 71.1373 128.296 71.5853 127.96C72.0333 127.643 72.3226 127.213 72.4533 126.672C72.6026 126.149 72.6866 125.571 72.7053 124.936C72.0706 125.403 71.4266 125.72 70.7733 125.888C70.1199 126.056 69.5133 126.14 68.9533 126.14ZM66.0973 118.412C66.0973 119.476 66.3866 120.316 66.9653 120.932C67.5626 121.548 68.3746 121.856 69.4013 121.856C70.8386 121.856 71.9119 121.025 72.6213 119.364C72.6213 118.767 72.6119 118.16 72.5933 117.544C72.5933 116.909 72.5839 116.293 72.5653 115.696C71.8186 115.211 70.9599 114.968 69.9893 114.968C68.7946 114.968 67.8426 115.285 67.1333 115.92C66.4426 116.536 66.0973 117.367 66.0973 118.412ZM88.2492 128.24C86.4572 128.24 84.8799 127.885 83.5172 127.176C82.1732 126.485 81.1186 125.515 80.3532 124.264C79.6066 123.013 79.2332 121.567 79.2332 119.924C79.2332 118.935 79.4012 117.899 79.7372 116.816C80.0732 115.715 80.6146 114.688 81.3612 113.736C82.1079 112.784 83.0879 112.009 84.3012 111.412C85.5332 110.815 87.0266 110.516 88.7812 110.516C90.0506 110.516 91.1146 110.656 91.9732 110.936C92.8506 111.216 93.5599 111.58 94.1012 112.028C94.6612 112.476 95.0812 112.952 95.3612 113.456C95.6599 113.96 95.8559 114.445 95.9492 114.912C96.0612 115.36 96.1172 115.733 96.1172 116.032C96.1172 117.843 95.3519 119.243 93.8212 120.232C92.3092 121.203 90.1626 121.688 87.3812 121.688C86.7466 121.688 86.1399 121.66 85.5612 121.604C85.0012 121.548 84.4786 121.483 83.9932 121.408C84.3479 122.341 84.9359 123.032 85.7572 123.48C86.5786 123.909 87.4279 124.124 88.3052 124.124C89.5746 124.124 90.6946 123.9 91.6652 123.452C92.6359 122.985 93.5506 122.276 94.4092 121.324L96.9012 124.908C96.3039 125.393 95.6319 125.897 94.8852 126.42C94.1572 126.943 93.2612 127.372 92.1972 127.708C91.1332 128.063 89.8172 128.24 88.2492 128.24ZM88.8652 114.716C87.7639 114.716 86.7932 114.996 85.9532 115.556C85.1132 116.116 84.4972 116.853 84.1052 117.768C84.5719 117.843 85.0292 117.908 85.4772 117.964C85.9439 118.001 86.4012 118.02 86.8492 118.02C87.2599 118.02 87.7266 117.983 88.2492 117.908C88.7906 117.833 89.3132 117.721 89.8172 117.572C90.3399 117.423 90.7692 117.236 91.1052 117.012C91.4412 116.769 91.6092 116.489 91.6092 116.172C91.6092 116.023 91.5346 115.836 91.3852 115.612C91.2359 115.388 90.9652 115.183 90.5732 114.996C90.1812 114.809 89.6119 114.716 88.8652 114.716ZM107.471 128.212C106.351 128.212 105.464 127.969 104.811 127.484C104.157 127.017 103.681 126.364 103.383 125.524C103.084 124.684 102.888 123.723 102.795 122.64C102.72 121.557 102.683 120.419 102.683 119.224C102.683 117.992 102.729 116.713 102.823 115.388C101.572 115.556 100.368 115.771 99.2106 116.032L98.3426 111.636C99.8919 111.225 101.544 110.927 103.299 110.74C103.429 109.788 103.569 108.789 103.719 107.744C103.868 106.68 104.036 105.56 104.223 104.384L109.039 104.804C108.815 105.775 108.619 106.745 108.451 107.716C108.283 108.668 108.133 109.592 108.003 110.488C109.048 110.488 110.028 110.516 110.943 110.572C111.876 110.609 112.735 110.684 113.519 110.796L112.959 115.192C112.305 115.117 111.624 115.071 110.915 115.052C110.224 115.015 109.524 114.996 108.815 114.996C108.385 114.996 107.956 115.005 107.527 115.024C107.415 116.387 107.34 117.553 107.303 118.524C107.284 119.495 107.275 120.185 107.275 120.596C107.275 121.623 107.331 122.36 107.443 122.808C107.573 123.256 107.779 123.48 108.059 123.48C108.376 123.48 108.731 123.377 109.123 123.172C109.515 122.948 109.897 122.649 110.271 122.276C110.663 121.903 110.989 121.501 111.251 121.072L113.407 125.58C111.559 127.335 109.58 128.212 107.471 128.212ZM125.892 128.24C124.287 128.24 122.719 126.831 121.188 124.012C119.937 121.697 118.799 118.851 117.772 115.472C116.764 112.093 115.765 108.239 114.776 103.908L119.844 103.236C120.367 105.737 120.936 108.145 121.552 110.46C122.187 112.756 122.831 114.837 123.484 116.704C124.156 118.552 124.8 120.064 125.416 121.24C125.565 121.539 125.705 121.791 125.836 121.996C125.985 122.183 126.079 122.276 126.116 122.276C126.191 122.276 126.284 122.192 126.396 122.024C126.527 121.856 126.704 121.557 126.928 121.128C127.563 119.989 128.244 118.505 128.972 116.676C129.719 114.847 130.475 112.775 131.24 110.46C132.005 108.145 132.724 105.709 133.396 103.152L138.38 104.076C137.54 107.044 136.681 109.797 135.804 112.336C134.927 114.856 134.068 117.105 133.228 119.084C132.388 121.044 131.613 122.687 130.904 124.012C129.392 126.831 127.721 128.24 125.892 128.24ZM140.276 107.912C140.276 107.744 140.266 107.576 140.248 107.408C140.248 107.221 140.248 107.016 140.248 106.792C140.248 106.195 140.266 105.56 140.304 104.888C140.341 104.216 140.378 103.647 140.416 103.18L145.4 103.264C145.344 103.899 145.278 104.617 145.204 105.42C145.148 106.223 145.11 107.053 145.092 107.912H140.276ZM140.164 127.96C140.108 126.803 140.07 125.571 140.052 124.264C140.033 122.939 140.024 121.613 140.024 120.288C140.024 118.552 140.042 116.863 140.08 115.22C140.117 113.577 140.164 112.084 140.22 110.74L145.036 110.712C144.961 111.571 144.914 112.635 144.896 113.904C144.877 115.155 144.868 116.471 144.868 117.852C144.868 119.215 144.877 120.559 144.896 121.884C144.914 123.209 144.933 124.413 144.952 125.496C144.989 126.56 145.017 127.381 145.036 127.96H140.164ZM156.198 128.24C154.406 128.24 152.829 127.885 151.466 127.176C150.122 126.485 149.068 125.515 148.302 124.264C147.556 123.013 147.182 121.567 147.182 119.924C147.182 118.935 147.35 117.899 147.686 116.816C148.022 115.715 148.564 114.688 149.31 113.736C150.057 112.784 151.037 112.009 152.25 111.412C153.482 110.815 154.976 110.516 156.73 110.516C158 110.516 159.064 110.656 159.922 110.936C160.8 111.216 161.509 111.58 162.05 112.028C162.61 112.476 163.03 112.952 163.31 113.456C163.609 113.96 163.805 114.445 163.898 114.912C164.01 115.36 164.066 115.733 164.066 116.032C164.066 117.843 163.301 119.243 161.77 120.232C160.258 121.203 158.112 121.688 155.33 121.688C154.696 121.688 154.089 121.66 153.51 121.604C152.95 121.548 152.428 121.483 151.942 121.408C152.297 122.341 152.885 123.032 153.706 123.48C154.528 123.909 155.377 124.124 156.254 124.124C157.524 124.124 158.644 123.9 159.614 123.452C160.585 122.985 161.5 122.276 162.358 121.324L164.85 124.908C164.253 125.393 163.581 125.897 162.834 126.42C162.106 126.943 161.21 127.372 160.146 127.708C159.082 128.063 157.766 128.24 156.198 128.24ZM156.814 114.716C155.713 114.716 154.742 114.996 153.902 115.556C153.062 116.116 152.446 116.853 152.054 117.768C152.521 117.843 152.978 117.908 153.426 117.964C153.893 118.001 154.35 118.02 154.798 118.02C155.209 118.02 155.676 117.983 156.198 117.908C156.74 117.833 157.262 117.721 157.766 117.572C158.289 117.423 158.718 117.236 159.054 117.012C159.39 116.769 159.558 116.489 159.558 116.172C159.558 116.023 159.484 115.836 159.334 115.612C159.185 115.388 158.914 115.183 158.522 114.996C158.13 114.809 157.561 114.716 156.814 114.716ZM173.236 128.296C171.686 128.296 170.37 127.092 169.288 124.684C168.914 123.825 168.588 122.883 168.308 121.856C168.028 120.829 167.785 119.784 167.58 118.72C167.393 117.656 167.234 116.639 167.104 115.668C166.992 114.679 166.898 113.811 166.824 113.064C166.768 112.299 166.721 111.72 166.684 111.328L171.276 110.264C171.5 114.501 171.836 117.721 172.284 119.924C172.75 122.127 173.105 123.228 173.348 123.228C173.478 123.228 173.637 122.967 173.824 122.444C174.029 121.921 174.253 121.231 174.496 120.372C174.738 119.495 174.972 118.533 175.196 117.488C175.42 116.443 175.616 115.388 175.784 114.324C175.56 112.961 175.41 111.879 175.336 111.076L180.068 110.908V111.244C180.068 112.009 180.124 112.905 180.236 113.932C180.348 114.959 180.488 116.023 180.656 117.124C180.824 118.207 181.001 119.215 181.188 120.148C181.393 121.081 181.589 121.837 181.776 122.416C181.962 122.995 182.121 123.284 182.252 123.284C182.364 123.284 182.522 123.032 182.728 122.528C182.933 122.024 183.157 121.333 183.4 120.456C183.661 119.579 183.922 118.58 184.184 117.46C184.445 116.321 184.697 115.127 184.94 113.876C185.182 112.607 185.378 111.347 185.528 110.096L190.148 111.076C189.83 112.849 189.448 114.613 189 116.368C188.57 118.104 188.113 119.719 187.628 121.212C187.142 122.687 186.666 123.928 186.2 124.936C185.154 127.157 183.857 128.268 182.308 128.268C181.804 128.268 181.225 128.109 180.572 127.792C179.937 127.493 179.349 126.859 178.808 125.888C178.621 125.533 178.434 125.104 178.248 124.6C178.061 124.096 177.884 123.536 177.716 122.92C177.492 123.611 177.268 124.227 177.044 124.768C176.054 127.12 174.785 128.296 173.236 128.296Z" fill="#E24B1C"/>
<path d="M47.552 148.552C47.5467 148.509 47.5413 148.453 47.536 148.384C47.536 148.315 47.536 148.235 47.536 148.144C47.536 147.925 47.5413 147.659 47.552 147.344C47.568 147.024 47.5867 146.677 47.608 146.304C47.6293 145.925 47.6533 145.544 47.68 145.16C47.7067 144.771 47.7333 144.397 47.76 144.04C47.792 143.677 47.8213 143.355 47.848 143.072C47.7627 143.083 47.68 143.093 47.6 143.104L47.424 141.744C47.9787 141.669 48.568 141.616 49.192 141.584C49.8213 141.552 50.4347 141.536 51.032 141.536C51.48 141.536 51.9093 141.547 52.32 141.568C52.736 141.584 53.1093 141.608 53.44 141.64L53.32 142.968C53.0747 142.92 52.7947 142.888 52.48 142.872C52.1653 142.851 51.8267 142.84 51.464 142.84C51.0907 142.84 50.704 142.851 50.304 142.872C49.9093 142.888 49.5253 142.909 49.152 142.936C49.1307 143.149 49.1093 143.371 49.088 143.6C49.072 143.829 49.056 144.067 49.04 144.312C49.3173 144.275 49.624 144.248 49.96 144.232C50.3013 144.216 50.64 144.208 50.976 144.208C51.36 144.208 51.72 144.219 52.056 144.24C52.3973 144.261 52.6587 144.299 52.84 144.352L52.744 145.64C52.3707 145.597 52.0213 145.568 51.696 145.552C51.3707 145.531 51.0533 145.52 50.744 145.52C50.1413 145.52 49.5467 145.56 48.96 145.64C48.928 146.2 48.9013 146.733 48.88 147.24C48.864 147.747 48.8507 148.173 48.84 148.52L47.552 148.552ZM54.2866 148.552C54.2439 148.275 54.2066 147.939 54.1746 147.544C54.1479 147.149 54.1266 146.72 54.1106 146.256C54.0999 145.792 54.0946 145.32 54.0946 144.84C54.0946 144.237 54.1052 143.651 54.1266 143.08C54.1479 142.509 54.1799 142.008 54.2226 141.576L55.6946 141.6C55.6359 141.979 55.5906 142.424 55.5586 142.936C55.5319 143.448 55.5186 144.029 55.5186 144.68C55.5186 145.341 55.5292 146.005 55.5506 146.672C55.5772 147.339 55.6066 147.949 55.6386 148.504L54.2866 148.552ZM56.6229 148.584C56.6229 147.752 56.6335 147.003 56.6549 146.336C56.6815 145.664 56.7135 145.053 56.7509 144.504C56.7935 143.949 56.8389 143.435 56.8869 142.96C56.9402 142.48 56.9909 142.021 57.0389 141.584L58.4149 141.64C58.3935 141.805 58.3695 141.984 58.3429 142.176C58.5242 142.421 58.7215 142.701 58.9349 143.016C59.1535 143.331 59.3749 143.664 59.5989 144.016C59.8282 144.363 60.0522 144.712 60.2709 145.064C60.4895 145.411 60.6975 145.744 60.8949 146.064C61.0922 146.379 61.2655 146.661 61.4149 146.912C61.4522 146.544 61.4709 146.027 61.4709 145.36C61.4709 145.019 61.4655 144.667 61.4549 144.304C61.4442 143.941 61.4309 143.595 61.4149 143.264C61.3989 142.928 61.3775 142.629 61.3509 142.368C61.3242 142.101 61.2949 141.893 61.2629 141.744L62.7669 141.56C62.7775 141.821 62.7829 142.165 62.7829 142.592C62.7882 143.013 62.7909 143.461 62.7909 143.936C62.7909 144.357 62.7882 144.781 62.7829 145.208C62.7775 145.629 62.7669 146.019 62.7509 146.376C62.7349 146.733 62.7109 147.029 62.6789 147.264C62.6202 147.723 62.5029 148.061 62.3269 148.28C62.1509 148.499 61.9029 148.608 61.5829 148.608C61.3215 148.608 61.0815 148.517 60.8629 148.336C60.6495 148.155 60.4175 147.856 60.1669 147.44C59.9962 147.152 59.7962 146.821 59.5669 146.448C59.3429 146.069 59.1082 145.683 58.8629 145.288C58.6229 144.893 58.3909 144.517 58.1669 144.16C58.1242 144.784 58.0922 145.408 58.0709 146.032C58.0495 146.651 58.0389 147.211 58.0389 147.712C58.0389 147.872 58.0389 148.021 58.0389 148.16C58.0389 148.304 58.0415 148.437 58.0469 148.56L56.6229 148.584ZM64.8952 148.568L63.5272 148.312C63.7832 147.277 64.0499 146.341 64.3272 145.504C64.6099 144.667 64.9005 143.949 65.1992 143.352C65.4979 142.755 65.8019 142.296 66.1112 141.976C66.4259 141.651 66.7405 141.488 67.0552 141.488C67.6899 141.488 68.2739 142.077 68.8072 143.256C69.3405 144.429 69.7939 146.131 70.1672 148.36L68.7512 148.552C68.6872 148.2 68.6179 147.84 68.5432 147.472C68.4685 147.099 68.3912 146.736 68.3112 146.384C68.1832 146.379 68.0445 146.376 67.8952 146.376C67.6339 146.376 67.3565 146.381 67.0632 146.392C66.7752 146.403 66.4899 146.421 66.2072 146.448C65.9299 146.469 65.6712 146.493 65.4312 146.52C65.3299 146.861 65.2312 147.208 65.1352 147.56C65.0445 147.907 64.9645 148.243 64.8952 148.568ZM66.3672 143.896C66.2499 144.147 66.0925 144.552 65.8952 145.112C66.1245 145.085 66.3672 145.067 66.6232 145.056C66.8792 145.04 67.1299 145.032 67.3752 145.032C67.5832 145.032 67.7832 145.037 67.9752 145.048C67.9005 144.776 67.8285 144.533 67.7592 144.32C67.6952 144.107 67.6365 143.939 67.5832 143.816C67.4712 143.528 67.3725 143.325 67.2872 143.208C67.2019 143.085 67.1139 143.024 67.0232 143.024C66.9272 143.024 66.8312 143.088 66.7352 143.216C66.6392 143.339 66.5165 143.565 66.3672 143.896ZM70.8885 148.584C70.8885 147.752 70.8992 147.003 70.9205 146.336C70.9472 145.664 70.9792 145.053 71.0165 144.504C71.0592 143.949 71.1045 143.435 71.1525 142.96C71.2058 142.48 71.2565 142.021 71.3045 141.584L72.6805 141.64C72.6592 141.805 72.6352 141.984 72.6085 142.176C72.7898 142.421 72.9872 142.701 73.2005 143.016C73.4192 143.331 73.6405 143.664 73.8645 144.016C74.0938 144.363 74.3178 144.712 74.5365 145.064C74.7552 145.411 74.9632 145.744 75.1605 146.064C75.3578 146.379 75.5312 146.661 75.6805 146.912C75.7178 146.544 75.7365 146.027 75.7365 145.36C75.7365 145.019 75.7312 144.667 75.7205 144.304C75.7098 143.941 75.6965 143.595 75.6805 143.264C75.6645 142.928 75.6432 142.629 75.6165 142.368C75.5898 142.101 75.5605 141.893 75.5285 141.744L77.0325 141.56C77.0432 141.821 77.0485 142.165 77.0485 142.592C77.0538 143.013 77.0565 143.461 77.0565 143.936C77.0565 144.357 77.0538 144.781 77.0485 145.208C77.0432 145.629 77.0325 146.019 77.0165 146.376C77.0005 146.733 76.9765 147.029 76.9445 147.264C76.8858 147.723 76.7685 148.061 76.5925 148.28C76.4165 148.499 76.1685 148.608 75.8485 148.608C75.5872 148.608 75.3472 148.517 75.1285 148.336C74.9152 148.155 74.6832 147.856 74.4325 147.44C74.2618 147.152 74.0618 146.821 73.8325 146.448C73.6085 146.069 73.3738 145.683 73.1285 145.288C72.8885 144.893 72.6565 144.517 72.4325 144.16C72.3898 144.784 72.3578 145.408 72.3365 146.032C72.3152 146.651 72.3045 147.211 72.3045 147.712C72.3045 147.872 72.3045 148.021 72.3045 148.16C72.3045 148.304 72.3072 148.437 72.3125 148.56L70.8885 148.584ZM81.1688 148.64C80.5181 148.64 79.9528 148.496 79.4728 148.208C78.9928 147.925 78.6221 147.525 78.3608 147.008C78.0995 146.491 77.9688 145.88 77.9688 145.176C77.9688 144.909 78.0008 144.613 78.0648 144.288C78.1341 143.957 78.2435 143.629 78.3928 143.304C78.5421 142.973 78.7421 142.672 78.9928 142.4C79.2435 142.128 79.5501 141.909 79.9128 141.744C80.2755 141.573 80.7021 141.488 81.1928 141.488C81.6141 141.488 81.9821 141.541 82.2968 141.648C82.6115 141.749 82.8835 141.88 83.1128 142.04C83.3421 142.195 83.5315 142.357 83.6808 142.528C83.8355 142.699 83.9581 142.856 84.0488 143C84.1395 143.139 84.2061 143.24 84.2488 143.304L83.0888 144.192C82.9715 143.973 82.8328 143.76 82.6728 143.552C82.5128 143.339 82.3155 143.163 82.0808 143.024C81.8461 142.885 81.5555 142.816 81.2088 142.816C80.8515 142.816 80.5555 142.896 80.3208 143.056C80.0861 143.216 79.8995 143.419 79.7608 143.664C79.6275 143.909 79.5341 144.171 79.4808 144.448C79.4275 144.72 79.4008 144.973 79.4008 145.208C79.4008 145.459 79.4275 145.707 79.4808 145.952C79.5341 146.197 79.6248 146.421 79.7528 146.624C79.8861 146.827 80.0621 146.989 80.2808 147.112C80.5048 147.229 80.7848 147.288 81.1208 147.288C81.4941 147.288 81.7981 147.221 82.0328 147.088C82.2728 146.955 82.4728 146.768 82.6328 146.528C82.7928 146.283 82.9421 145.997 83.0808 145.672L84.3928 146.264C84.1581 146.749 83.8941 147.171 83.6008 147.528C83.3075 147.885 82.9635 148.16 82.5688 148.352C82.1741 148.544 81.7075 148.64 81.1688 148.64ZM85.3256 148.552C85.283 148.275 85.2456 147.939 85.2136 147.544C85.187 147.149 85.1656 146.72 85.1496 146.256C85.139 145.792 85.1336 145.32 85.1336 144.84C85.1336 144.237 85.1443 143.651 85.1656 143.08C85.187 142.509 85.219 142.008 85.2616 141.576L86.7336 141.6C86.675 141.979 86.6296 142.424 86.5976 142.936C86.571 143.448 86.5576 144.029 86.5576 144.68C86.5576 145.341 86.5683 146.005 86.5896 146.672C86.6163 147.339 86.6456 147.949 86.6776 148.504L85.3256 148.552ZM88.6139 148.568L87.2459 148.312C87.5019 147.277 87.7686 146.341 88.0459 145.504C88.3286 144.667 88.6193 143.949 88.9179 143.352C89.2166 142.755 89.5206 142.296 89.8299 141.976C90.1446 141.651 90.4593 141.488 90.7739 141.488C91.4086 141.488 91.9926 142.077 92.5259 143.256C93.0593 144.429 93.5126 146.131 93.8859 148.36L92.4699 148.552C92.4059 148.2 92.3366 147.84 92.2619 147.472C92.1873 147.099 92.1099 146.736 92.0299 146.384C91.9019 146.379 91.7633 146.376 91.6139 146.376C91.3526 146.376 91.0753 146.381 90.7819 146.392C90.4939 146.403 90.2086 146.421 89.9259 146.448C89.6486 146.469 89.3899 146.493 89.1499 146.52C89.0486 146.861 88.9499 147.208 88.8539 147.56C88.7633 147.907 88.6833 148.243 88.6139 148.568ZM90.0859 143.896C89.9686 144.147 89.8113 144.552 89.6139 145.112C89.8433 145.085 90.0859 145.067 90.3419 145.056C90.5979 145.04 90.8486 145.032 91.0939 145.032C91.3019 145.032 91.5019 145.037 91.6939 145.048C91.6193 144.776 91.5473 144.533 91.4779 144.32C91.4139 144.107 91.3553 143.939 91.3019 143.816C91.1899 143.528 91.0913 143.325 91.0059 143.208C90.9206 143.085 90.8326 143.024 90.7419 143.024C90.6459 143.024 90.5499 143.088 90.4539 143.216C90.3579 143.339 90.2353 143.565 90.0859 143.896ZM96.9273 148.584C96.3993 148.584 95.9806 148.539 95.6713 148.448C95.3619 148.357 95.1326 148.229 94.9833 148.064C94.8339 147.904 94.7353 147.715 94.6873 147.496C94.6446 147.272 94.6233 147.032 94.6233 146.776C94.6233 146.349 94.6339 145.861 94.6553 145.312C94.6819 144.763 94.7139 144.173 94.7513 143.544C94.7939 142.909 94.8393 142.253 94.8873 141.576L96.3433 141.72C96.2899 142.131 96.2419 142.552 96.1993 142.984C96.1619 143.411 96.1299 143.827 96.1033 144.232C96.0766 144.637 96.0553 145.005 96.0393 145.336C96.0233 145.667 96.0099 145.944 95.9993 146.168C95.9939 146.387 95.9913 146.528 95.9913 146.592C95.9913 146.779 96.0126 146.92 96.0553 147.016C96.0979 147.107 96.1833 147.168 96.3113 147.2C96.4393 147.232 96.6259 147.248 96.8713 147.248C97.1806 147.248 97.5299 147.229 97.9193 147.192C98.3086 147.149 98.7033 147.088 99.1033 147.008C99.5033 146.928 99.8686 146.832 100.199 146.72L100.511 148.096C100.149 148.187 99.7566 148.269 99.3353 148.344C98.9193 148.419 98.5033 148.477 98.0873 148.52C97.6713 148.563 97.2846 148.584 96.9273 148.584ZM103.06 148.552C103.017 148.275 102.98 147.939 102.948 147.544C102.921 147.149 102.9 146.72 102.884 146.256C102.873 145.792 102.868 145.32 102.868 144.84C102.868 144.237 102.879 143.651 102.9 143.08C102.921 142.509 102.953 142.008 102.996 141.576L104.468 141.6C104.409 141.979 104.364 142.424 104.332 142.936C104.305 143.448 104.292 144.029 104.292 144.68C104.292 145.341 104.303 146.005 104.324 146.672C104.351 147.339 104.38 147.949 104.412 148.504L103.06 148.552ZM105.396 148.584C105.396 147.752 105.407 147.003 105.428 146.336C105.455 145.664 105.487 145.053 105.524 144.504C105.567 143.949 105.612 143.435 105.66 142.96C105.714 142.48 105.764 142.021 105.812 141.584L107.188 141.64C107.167 141.805 107.143 141.984 107.116 142.176C107.298 142.421 107.495 142.701 107.708 143.016C107.927 143.331 108.148 143.664 108.372 144.016C108.602 144.363 108.826 144.712 109.044 145.064C109.263 145.411 109.471 145.744 109.668 146.064C109.866 146.379 110.039 146.661 110.188 146.912C110.226 146.544 110.244 146.027 110.244 145.36C110.244 145.019 110.239 144.667 110.228 144.304C110.218 143.941 110.204 143.595 110.188 143.264C110.172 142.928 110.151 142.629 110.124 142.368C110.098 142.101 110.068 141.893 110.036 141.744L111.54 141.56C111.551 141.821 111.556 142.165 111.556 142.592C111.562 143.013 111.564 143.461 111.564 143.936C111.564 144.357 111.562 144.781 111.556 145.208C111.551 145.629 111.54 146.019 111.524 146.376C111.508 146.733 111.484 147.029 111.452 147.264C111.394 147.723 111.276 148.061 111.1 148.28C110.924 148.499 110.676 148.608 110.356 148.608C110.095 148.608 109.855 148.517 109.636 148.336C109.423 148.155 109.191 147.856 108.94 147.44C108.77 147.152 108.57 146.821 108.34 146.448C108.116 146.069 107.882 145.683 107.636 145.288C107.396 144.893 107.164 144.517 106.94 144.16C106.898 144.784 106.866 145.408 106.844 146.032C106.823 146.651 106.812 147.211 106.812 147.712C106.812 147.872 106.812 148.021 106.812 148.16C106.812 148.304 106.815 148.437 106.82 148.56L105.396 148.584ZM115.557 148.64C115.109 148.64 114.693 148.573 114.309 148.44C113.925 148.307 113.578 148.131 113.269 147.912C112.965 147.688 112.698 147.448 112.469 147.192L113.269 145.92C113.338 146.101 113.453 146.275 113.613 146.44C113.778 146.605 113.97 146.752 114.189 146.88C114.407 147.008 114.637 147.109 114.877 147.184C115.122 147.259 115.362 147.296 115.597 147.296C115.949 147.296 116.229 147.24 116.437 147.128C116.645 147.011 116.749 146.856 116.749 146.664C116.749 146.515 116.701 146.392 116.605 146.296C116.514 146.195 116.407 146.115 116.285 146.056C116.167 145.992 116.066 145.936 115.981 145.888C115.917 145.856 115.799 145.808 115.629 145.744C115.463 145.675 115.277 145.6 115.069 145.52C114.861 145.44 114.663 145.365 114.477 145.296C114.29 145.221 114.143 145.16 114.037 145.112C113.242 144.755 112.845 144.203 112.845 143.456C112.845 143.216 112.89 142.981 112.981 142.752C113.077 142.517 113.221 142.304 113.413 142.112C113.605 141.92 113.85 141.768 114.149 141.656C114.447 141.544 114.805 141.488 115.221 141.488C115.674 141.488 116.077 141.539 116.429 141.64C116.781 141.736 117.09 141.859 117.357 142.008C117.629 142.157 117.861 142.315 118.053 142.48L117.317 143.712C116.725 143.125 116.055 142.832 115.309 142.832C114.994 142.832 114.754 142.867 114.589 142.936C114.429 143 114.319 143.075 114.261 143.16C114.207 143.24 114.181 143.307 114.181 143.36C114.181 143.451 114.213 143.541 114.277 143.632C114.346 143.723 114.498 143.819 114.733 143.92C114.829 143.963 114.957 144.016 115.117 144.08C115.282 144.139 115.463 144.205 115.661 144.28C115.863 144.355 116.061 144.435 116.253 144.52C116.45 144.6 116.629 144.683 116.789 144.768C116.981 144.875 117.178 145.005 117.381 145.16C117.583 145.315 117.754 145.507 117.893 145.736C118.037 145.96 118.109 146.235 118.109 146.56C118.109 146.757 118.071 146.976 117.997 147.216C117.922 147.451 117.791 147.677 117.605 147.896C117.418 148.115 117.159 148.293 116.829 148.432C116.498 148.571 116.074 148.64 115.557 148.64ZM119.013 148.552C118.97 148.275 118.933 147.939 118.901 147.544C118.874 147.149 118.853 146.72 118.837 146.256C118.826 145.792 118.821 145.32 118.821 144.84C118.821 144.237 118.832 143.651 118.853 143.08C118.874 142.509 118.906 142.008 118.949 141.576L120.421 141.6C120.362 141.979 120.317 142.424 120.285 142.936C120.258 143.448 120.245 144.029 120.245 144.68C120.245 145.341 120.256 146.005 120.277 146.672C120.304 147.339 120.333 147.949 120.365 148.504L119.013 148.552ZM124.061 148.376C123.507 148.376 123.04 148.277 122.661 148.08C122.283 147.888 121.979 147.632 121.749 147.312C121.525 146.992 121.363 146.643 121.261 146.264C121.16 145.885 121.109 145.509 121.109 145.136C121.109 144.693 121.181 144.256 121.325 143.824C121.469 143.392 121.685 143 121.973 142.648C122.267 142.296 122.629 142.013 123.061 141.8C123.499 141.587 124.008 141.48 124.589 141.48C125.08 141.48 125.509 141.552 125.877 141.696C126.245 141.835 126.56 142.005 126.821 142.208C127.088 142.405 127.301 142.592 127.461 142.768L126.461 143.848C126.312 143.672 126.152 143.507 125.981 143.352C125.816 143.197 125.619 143.072 125.389 142.976C125.16 142.88 124.877 142.832 124.541 142.832C124.179 142.832 123.867 142.899 123.605 143.032C123.344 143.16 123.131 143.333 122.965 143.552C122.8 143.771 122.677 144.016 122.597 144.288C122.523 144.56 122.485 144.84 122.485 145.128C122.485 145.469 122.541 145.784 122.653 146.072C122.771 146.36 122.944 146.592 123.173 146.768C123.408 146.944 123.699 147.032 124.045 147.032C124.472 147.032 124.824 146.933 125.101 146.736C125.379 146.539 125.571 146.256 125.677 145.888C125.448 145.904 125.227 145.925 125.013 145.952C124.805 145.973 124.619 145.997 124.453 146.024L124.317 144.728C124.632 144.659 124.995 144.608 125.405 144.576C125.821 144.539 126.219 144.52 126.597 144.52C127.12 144.52 127.512 144.552 127.773 144.616L127.741 145.928C127.629 145.896 127.451 145.872 127.205 145.856C127.205 145.973 127.205 146.096 127.205 146.224C127.211 146.352 127.213 146.483 127.213 146.616C127.213 146.984 127.208 147.347 127.197 147.704C127.187 148.061 127.176 148.347 127.165 148.56L125.797 148.528C125.803 148.459 125.811 148.352 125.821 148.208C125.837 148.064 125.853 147.901 125.869 147.72C125.688 147.912 125.451 148.069 125.157 148.192C124.869 148.315 124.504 148.376 124.061 148.376ZM128.829 148.576C128.781 148.277 128.746 147.912 128.725 147.48C128.704 147.048 128.693 146.581 128.693 146.08C128.693 145.563 128.701 145.032 128.717 144.488C128.738 143.944 128.762 143.421 128.789 142.92C128.821 142.413 128.856 141.965 128.893 141.576L130.285 141.6C130.226 141.973 130.178 142.389 130.141 142.848C130.109 143.301 130.082 143.773 130.061 144.264C130.44 144.211 130.85 144.171 131.293 144.144C131.736 144.117 132.162 144.104 132.573 144.104C132.77 144.104 132.96 144.109 133.141 144.12C133.136 143.72 133.128 143.347 133.117 143C133.106 142.653 133.093 142.36 133.077 142.12C133.061 141.88 133.042 141.715 133.021 141.624L134.397 141.536C134.445 141.984 134.482 142.52 134.509 143.144C134.541 143.768 134.557 144.429 134.557 145.128C134.557 145.693 134.546 146.269 134.525 146.856C134.504 147.437 134.466 147.997 134.413 148.536H133.077C133.098 148.365 133.114 148.133 133.125 147.84C133.136 147.541 133.144 147.205 133.149 146.832C133.154 146.453 133.157 146.059 133.157 145.648C133.157 145.573 133.157 145.496 133.157 145.416C133.056 145.416 132.952 145.416 132.845 145.416C132.744 145.411 132.64 145.408 132.533 145.408C132.112 145.408 131.685 145.424 131.253 145.456C130.826 145.483 130.418 145.523 130.029 145.576C130.029 145.747 130.029 145.917 130.029 146.088C130.029 146.557 130.032 146.997 130.037 147.408C130.048 147.819 130.064 148.192 130.085 148.528L128.829 148.576ZM137.925 148.592C137.888 148.128 137.861 147.677 137.845 147.24C137.834 146.803 137.829 146.389 137.829 146C137.829 145.355 137.842 144.776 137.869 144.264C137.896 143.747 137.922 143.301 137.949 142.928C137.49 142.955 137.045 142.989 136.613 143.032C136.181 143.075 135.781 143.131 135.413 143.2L135.429 141.864C136.053 141.752 136.693 141.672 137.349 141.624C138.005 141.571 138.661 141.544 139.317 141.544C139.786 141.544 140.234 141.555 140.661 141.576C141.093 141.597 141.506 141.629 141.901 141.672L141.893 143.056C141.52 142.997 141.114 142.957 140.677 142.936C140.245 142.909 139.802 142.896 139.349 142.896C139.322 143.259 139.298 143.664 139.277 144.112C139.256 144.555 139.245 145.029 139.245 145.536C139.245 145.989 139.256 146.467 139.277 146.968C139.304 147.469 139.336 147.997 139.373 148.552L137.925 148.592ZM145.604 148.64C145.156 148.64 144.74 148.573 144.356 148.44C143.972 148.307 143.625 148.131 143.316 147.912C143.012 147.688 142.745 147.448 142.516 147.192L143.316 145.92C143.385 146.101 143.5 146.275 143.66 146.44C143.825 146.605 144.017 146.752 144.236 146.88C144.454 147.008 144.684 147.109 144.924 147.184C145.169 147.259 145.409 147.296 145.644 147.296C145.996 147.296 146.276 147.24 146.484 147.128C146.692 147.011 146.796 146.856 146.796 146.664C146.796 146.515 146.748 146.392 146.652 146.296C146.561 146.195 146.454 146.115 146.332 146.056C146.214 145.992 146.113 145.936 146.028 145.888C145.964 145.856 145.846 145.808 145.676 145.744C145.51 145.675 145.324 145.6 145.116 145.52C144.908 145.44 144.71 145.365 144.524 145.296C144.337 145.221 144.19 145.16 144.084 145.112C143.289 144.755 142.892 144.203 142.892 143.456C142.892 143.216 142.937 142.981 143.028 142.752C143.124 142.517 143.268 142.304 143.46 142.112C143.652 141.92 143.897 141.768 144.196 141.656C144.494 141.544 144.852 141.488 145.268 141.488C145.721 141.488 146.124 141.539 146.476 141.64C146.828 141.736 147.137 141.859 147.404 142.008C147.676 142.157 147.908 142.315 148.1 142.48L147.364 143.712C146.772 143.125 146.102 142.832 145.356 142.832C145.041 142.832 144.801 142.867 144.636 142.936C144.476 143 144.366 143.075 144.308 143.16C144.254 143.24 144.228 143.307 144.228 143.36C144.228 143.451 144.26 143.541 144.324 143.632C144.393 143.723 144.545 143.819 144.78 143.92C144.876 143.963 145.004 144.016 145.164 144.08C145.329 144.139 145.51 144.205 145.708 144.28C145.91 144.355 146.108 144.435 146.299 144.52C146.497 144.6 146.676 144.683 146.836 144.768C147.028 144.875 147.225 145.005 147.428 145.16C147.63 145.315 147.801 145.507 147.94 145.736C148.084 145.96 148.156 146.235 148.156 146.56C148.156 146.757 148.118 146.976 148.044 147.216C147.969 147.451 147.838 147.677 147.652 147.896C147.465 148.115 147.206 148.293 146.876 148.432C146.545 148.571 146.121 148.64 145.604 148.64Z" fill="black"/>
<line x1="4" y1="144.5" x2="37" y2="144.5" stroke="black"/>
<line x1="159" y1="144.5" x2="192" y2="144.5" stroke="black"/>
</svg>
