<svg width="19" height="16" viewBox="0 0 19 16" fill="none" xmlns="http://www.w3.org/2000/svg">
<path d="M8.76562 0.162512C9.23125 -0.0531128 9.76875 -0.0531128 10.2344 0.162512L17.0656 3.31876C17.3312 3.44064 17.5 3.70626 17.5 4.00001C17.5 4.29376 17.3312 4.55939 17.0656 4.68126L10.2344 7.83751C9.76875 8.05314 9.23125 8.05314 8.76562 7.83751L1.93438 4.68126C1.66875 4.55626 1.5 4.29064 1.5 4.00001C1.5 3.70939 1.66875 3.44064 1.93438 3.31876L8.76562 0.162512ZM15.4031 6.55001L17.0656 7.31876C17.3312 7.44064 17.5 7.70626 17.5 8.00001C17.5 8.29376 17.3312 8.55939 17.0656 8.68126L10.2344 11.8375C9.76875 12.0531 9.23125 12.0531 8.76562 11.8375L1.93438 8.68126C1.66875 8.55626 1.5 8.29064 1.5 8.00001C1.5 7.70939 1.66875 7.44064 1.93438 7.31876L3.59687 6.55001L8.34687 8.74376C9.07812 9.08126 9.92187 9.08126 10.6531 8.74376L15.4031 6.55001ZM10.6531 12.7438L15.4031 10.55L17.0656 11.3188C17.3312 11.4406 17.5 11.7063 17.5 12C17.5 12.2938 17.3312 12.5594 17.0656 12.6813L10.2344 15.8375C9.76875 16.0531 9.23125 16.0531 8.76562 15.8375L1.93438 12.6813C1.66875 12.5563 1.5 12.2906 1.5 12C1.5 11.7094 1.66875 11.4406 1.93438 11.3188L3.59687 10.55L8.34687 12.7438C9.07812 13.0813 9.92187 13.0813 10.6531 12.7438Z" fill="black"/>
</svg>
