<svg width="19" height="16" viewBox="0 0 19 16" fill="none" xmlns="http://www.w3.org/2000/svg">
<g clip-path="url(#clip0_48_399)">
<path d="M18.4938 7.98438C18.4938 8.54688 18.025 8.9875 17.4938 8.9875H16.4938L16.5157 13.9937C16.5157 14.0781 16.5094 14.1625 16.5 14.2469V14.7531C16.5 15.4438 15.9407 16.0031 15.25 16.0031H14.75C14.7157 16.0031 14.6813 16.0031 14.6469 16C14.6032 16.0031 14.5594 16.0031 14.5157 16.0031L13.5 16H12.75C12.0594 16 11.5 15.4406 11.5 14.75V14V12C11.5 11.4469 11.0532 11 10.5 11H8.50005C7.94692 11 7.50005 11.4469 7.50005 12V14V14.75C7.50005 15.4406 6.94067 16 6.25005 16H5.50005H4.50317C4.4563 16 4.40942 15.9969 4.36255 15.9937C4.32505 15.9969 4.28755 16 4.25005 16H3.75005C3.05942 16 2.50005 15.4406 2.50005 14.75V11.25C2.50005 11.2219 2.50005 11.1906 2.50317 11.1625V8.98438H1.50317C0.940674 8.98438 0.503174 8.54688 0.503174 7.98125C0.503174 7.7 0.596924 7.45 0.815674 7.23125L8.82505 0.25C9.0438 0.03125 9.2938 0 9.51255 0C9.7313 0 9.9813 0.0625 10.1688 0.21875L18.15 7.23438C18.4 7.45312 18.525 7.70312 18.4938 7.98438Z" fill="black"/>
</g>
<defs>
<clipPath id="clip0_48_399">
<rect width="18" height="16" fill="white" transform="translate(0.5)"/>
</clipPath>
</defs>
</svg>
