<svg width="12" height="16" viewBox="0 0 12 16" fill="none" xmlns="http://www.w3.org/2000/svg">
<g clip-path="url(#clip0_48_387)">
<path d="M0.4375 0.0688969C0.703125 -0.0529781 1.01562 -0.00922811 1.2375 0.181397L2.5 1.26265L3.7625 0.181397C4.04375 -0.0592281 4.45938 -0.0592281 4.7375 0.181397L6 1.26265L7.2625 0.181397C7.54375 -0.0592281 7.95938 -0.0592281 8.2375 0.181397L9.5 1.26265L10.7625 0.181397C10.9844 -0.00922811 11.2969 -0.0529781 11.5625 0.0688969C11.8281 0.190772 12 0.456397 12 0.750147V15.2501C12 15.5439 11.8281 15.8095 11.5625 15.9314C11.2969 16.0533 10.9844 16.0095 10.7625 15.8189L9.5 14.7376L8.2375 15.8189C7.95625 16.0595 7.54062 16.0595 7.2625 15.8189L6 14.7376L4.7375 15.8189C4.45625 16.0595 4.04063 16.0595 3.7625 15.8189L2.5 14.7376L1.2375 15.8189C1.01562 16.0095 0.703125 16.0533 0.4375 15.9314C0.171875 15.8095 0 15.5439 0 15.2501V0.750147C0 0.456397 0.171875 0.190772 0.4375 0.0688969ZM3 4.50015C2.725 4.50015 2.5 4.72515 2.5 5.00015C2.5 5.27515 2.725 5.50015 3 5.50015H9C9.275 5.50015 9.5 5.27515 9.5 5.00015C9.5 4.72515 9.275 4.50015 9 4.50015H3ZM2.5 11.0001C2.5 11.2751 2.725 11.5001 3 11.5001H9C9.275 11.5001 9.5 11.2751 9.5 11.0001C9.5 10.7251 9.275 10.5001 9 10.5001H3C2.725 10.5001 2.5 10.7251 2.5 11.0001ZM3 7.50015C2.725 7.50015 2.5 7.72515 2.5 8.00015C2.5 8.27515 2.725 8.50015 3 8.50015H9C9.275 8.50015 9.5 8.27515 9.5 8.00015C9.5 7.72515 9.275 7.50015 9 7.50015H3Z" fill="black"/>
</g>
<defs>
<clipPath id="clip0_48_387">
<rect width="12" height="16" fill="white"/>
</clipPath>
</defs>
</svg>
